<?xml version="1.0" encoding="UTF-8"?>
<svg version="1.1" xmlns="http://www.w3.org/2000/svg" width="1668" height="1668">
<path d="M0 0 C550.44 0 1100.88 0 1668 0 C1668 550.44 1668 1100.88 1668 1668 C1117.56 1668 567.12 1668 0 1668 C0 1117.56 0 567.12 0 0 Z " fill="#000000" transform="translate(0,0)"/>
<path d="M0 0 C0.72855913 -0.00320648 1.45711826 -0.00641296 2.20775494 -0.0097166 C4.63813813 -0.01798837 7.06827306 -0.0121023 9.49866009 -0.00622082 C11.26314111 -0.00924279 13.02762082 -0.01313251 14.79209822 -0.01781338 C19.63268288 -0.02809624 24.4731935 -0.02591081 29.31378424 -0.02163279 C34.53749651 -0.01916608 39.76119093 -0.02817907 44.98489666 -0.03567028 C55.21580867 -0.04842103 65.44669444 -0.05021048 75.67761306 -0.04787002 C83.99397911 -0.04608705 92.3103372 -0.04783605 100.62670231 -0.05209446 C102.40209442 -0.05298724 102.40209442 -0.05298724 104.21335303 -0.05389806 C106.61783372 -0.05510981 109.0223144 -0.05632395 111.42679509 -0.05754044 C133.97753103 -0.06841752 156.52825202 -0.06625274 179.07898881 -0.06015559 C199.70575377 -0.05498683 220.3324715 -0.06624052 240.95922712 -0.08525381 C262.14162043 -0.1046295 283.32399139 -0.11288865 304.50639361 -0.10913056 C316.39752677 -0.10721804 328.28861974 -0.10971102 340.17974567 -0.1238451 C350.30330855 -0.13575646 360.42680649 -0.13716654 370.55037025 -0.12505493 C375.71423528 -0.11916444 380.87798152 -0.11807161 386.04183865 -0.13005733 C390.77246892 -0.14090978 395.50288112 -0.13782027 400.23350116 -0.12379565 C401.94138712 -0.12114697 403.64929013 -0.12352063 405.35715935 -0.13153151 C420.39032852 -0.19713006 432.95726626 1.54168715 444.43242168 12.17244434 C455.85014158 24.55399774 456.6616821 37.58281298 456.64299297 53.6429491 C456.64816551 55.42265527 456.65419329 57.20235911 456.66099977 58.98205978 C456.67708445 63.86018874 456.68071581 68.73825875 456.68219471 73.61641109 C456.68590541 78.8824345 456.70100475 84.14842765 456.71446514 89.41443348 C456.74159189 100.92273377 456.75367454 112.43102009 456.76248646 123.93934703 C456.76801718 131.12818715 456.77649287 138.31702192 456.7854948 145.50585842 C456.80987326 165.41913706 456.83047433 185.33241142 456.83724499 205.24570465 C456.83790369 207.15620981 456.83790369 207.15620981 456.83857569 209.10531102 C456.83901225 210.38197922 456.8394488 211.65864742 456.83989859 212.97400254 C456.84078551 215.56090176 456.84167864 218.14780098 456.84257793 220.7347002 C456.84324222 222.65947579 456.84324222 222.65947579 456.84391993 224.62313572 C456.85181627 245.41598601 456.88672853 266.20869614 456.93329698 287.00149228 C456.98074849 308.36134479 457.00564974 329.72112699 457.00798082 351.08103305 C457.00981279 363.06900091 457.02127899 375.05678603 457.05762005 387.04470348 C457.08845492 397.25201112 457.09864359 407.45907952 457.08214384 417.66642489 C457.07434274 422.87131206 457.07613067 428.07571766 457.10425854 433.28054523 C457.12980907 438.05220653 457.1272799 442.82302623 457.10307711 447.59468696 C457.0991755 449.31404464 457.10526303 451.03346268 457.12276584 452.7527357 C457.2643213 467.60663677 454.43806562 479.16750675 443.65898418 490.19978809 C440.44860106 493.07166143 437.20752081 495.32388984 433.36210918 497.25447559 C432.75367168 497.55998341 432.14523418 497.86549122 431.51835918 498.18025684 C425.66082916 500.89064903 420.07193818 501.37962715 413.68922138 501.37752342 C413.04071632 501.37867727 412.39221125 501.37983111 411.72405452 501.38101992 C409.55411445 501.38366378 407.38424879 501.37918286 405.21431255 501.37473011 C403.64170991 501.37516627 402.06910733 501.376042 400.49650514 501.37731928 C396.1774539 501.37955548 391.85842744 501.37555489 387.53937936 501.37054121 C382.88095459 501.36622437 378.22253124 501.36768402 373.56410503 501.36844349 C365.49382604 501.36896794 357.42355512 501.36582936 349.35327816 501.36020565 C337.68499954 501.35208 326.01672482 501.34947433 314.34844367 501.34821766 C295.41761251 501.34602882 276.48678566 501.33937327 257.55595684 501.32991505 C239.1659831 501.3207366 220.77601053 501.31366934 202.38603497 501.30940723 C201.2409918 501.30913924 200.09594864 501.30887124 198.91620719 501.30859512 C189.96127067 501.30651571 181.00633412 501.30455878 172.05139756 501.30264056 C128.15496415 501.2932062 84.25854152 501.27308804 40.36210918 501.25447559 C40.36210918 611.14447559 40.36210918 721.03447559 40.36210918 834.25447559 C67.77273418 834.23127247 95.18335918 834.20806934 123.42460918 834.18416309 C140.75143235 834.17394851 158.07825368 834.16422611 175.40507793 834.15681934 C184.50452462 834.15290353 193.60397124 834.14886255 202.70341778 834.14461231 C203.84390202 834.14408481 204.98438626 834.14355732 206.15943062 834.14301383 C224.57720946 834.13431269 242.99497583 834.11854365 261.41274726 834.10017 C280.3111125 834.081474 299.2094712 834.0703595 318.10784531 834.0662986 C329.77129237 834.06355293 341.4347042 834.05487752 353.09814042 834.03864266 C361.09369374 834.02807949 369.08922882 834.02487346 377.08478862 834.02747284 C381.69936107 834.02875516 386.31387189 834.02677455 390.92843342 834.01606464 C395.15401712 834.0063291 399.37949775 834.0058427 403.60508621 834.0126778 C405.13281136 834.01352254 406.66054295 834.01098806 408.18825543 834.00470923 C422.40188718 833.94969416 433.86541848 835.7641403 444.61210918 845.81697559 C453.91281307 855.58637637 456.7052639 865.47269016 456.51054668 878.56306934 C456.08767233 889.07928694 451.61394923 898.69271373 444.43242168 906.37166309 C432.09036158 917.59595172 418.79620747 918.70363981 402.87825298 918.64215565 C401.11260639 918.64633343 399.34696248 918.65181338 397.5813235 918.65847546 C392.75134679 918.6728904 387.92154129 918.66869771 383.09155536 918.66130865 C377.87398455 918.65656949 372.65645039 918.66909344 367.43889141 918.67932606 C357.22575667 918.69650471 347.01268347 918.697356 336.79953803 918.69211315 C328.49660614 918.6880685 320.1936924 918.68951853 311.89076138 918.69486141 C310.70815055 918.69560983 309.52553973 918.69635826 308.30709221 918.69712936 C305.90446759 918.69866087 303.50184297 918.70019921 301.09921835 918.70174433 C278.57796877 918.71546598 256.05675395 918.71003401 233.53550516 918.69855911 C212.94259897 918.68862703 192.34978264 918.7015676 171.75689031 918.7254933 C150.59924777 918.7498895 129.44164707 918.75949089 108.28399074 918.75284058 C96.41071292 918.74934953 84.5375042 918.75157294 72.66423702 918.76909161 C62.55688842 918.78382004 52.44965758 918.78444055 42.34231128 918.76702069 C37.18827238 918.75851371 32.0344438 918.75635393 26.88041592 918.77167225 C22.15652414 918.78553805 17.43302248 918.78073179 12.70915316 918.76143301 C11.00603291 918.75767852 9.30288127 918.760579 7.59978904 918.77104466 C-8.11294821 918.86068699 -20.50632079 916.23564822 -32.59882832 905.51619434 C-43.29814767 894.60662635 -44.51958471 881.56078108 -44.37960529 867.16188526 C-44.38437915 865.36675749 -44.39177943 863.57163514 -44.40155452 861.77652764 C-44.42066976 856.87891444 -44.40269005 851.98205311 -44.37826169 847.08448982 C-44.35843184 841.78931203 -44.37339735 836.49421382 -44.38390827 831.19902515 C-44.39899475 820.84083108 -44.38216028 810.48292548 -44.35435737 800.12476727 C-44.32313434 788.05677108 -44.32341779 775.9888365 -44.32487511 763.92080751 C-44.32637536 742.38808925 -44.2989341 720.85550491 -44.25532246 699.32283497 C-44.2130424 678.43674245 -44.19181119 657.55076774 -44.19379902 636.66463184 C-44.19391889 635.37760792 -44.19403876 634.090584 -44.19416226 632.76455936 C-44.19428332 631.47974081 -44.19440438 630.19492225 -44.19452912 628.87116981 C-44.19659935 605.07630932 -44.17892718 581.28149879 -44.15206947 557.48665451 C-44.14302718 549.07739905 -44.13983161 540.66815279 -44.13847256 532.25889301 C-44.13642474 522.01209375 -44.12301062 511.76537874 -44.09547413 501.51861522 C-44.08163844 496.29206199 -44.07247694 491.06561639 -44.07625675 485.83904362 C-44.07955045 481.05255593 -44.0689348 476.26630598 -44.04731118 471.47986785 C-44.0418879 469.75065322 -44.04146401 468.02141397 -44.04661305 466.29219851 C-44.08658093 451.19534818 -42.13943007 440.4136811 -31.56757832 429.02400684 C-23.55518556 421.37059226 -14.22453786 417.12781329 -3.16424656 417.13142776 C-2.51298406 417.13027392 -1.86172156 417.12912008 -1.19072384 417.12793127 C1.0006391 417.12527564 3.19192917 417.12977811 5.38328838 417.13422108 C6.96653932 417.13378516 8.54979019 417.13290987 10.13304067 417.13163191 C14.49081522 417.12939098 18.8485653 417.13340278 23.20633674 417.13840997 C27.90297016 417.14272002 32.59960215 417.14126765 37.29623699 417.1405077 C45.43585062 417.13998282 53.57545625 417.1431259 61.71506786 417.14874554 C73.48364575 417.15686535 85.25221976 417.15947625 97.02080014 417.16073353 C116.11357592 417.16292329 135.20634744 417.16958132 154.2991209 417.17903614 C172.84827433 417.18821222 191.3974266 417.19528063 209.94658184 417.19954395 C211.10121351 417.19981195 212.25584518 417.20007995 213.44546568 417.20035607 C222.4751628 417.20243543 231.50485995 417.20439238 240.5345571 417.20631063 C284.81041171 417.21574788 329.08625564 417.23586534 373.36210918 417.25447559 C373.36210918 307.36447559 373.36210918 197.47447559 373.36210918 84.25447559 C345.89089825 84.27767872 318.41968731 84.30088184 290.11601543 84.32478809 C272.74817664 84.33500299 255.38033969 84.34472544 238.01249981 84.35213184 C228.89116185 84.35604762 219.76982395 84.36008859 210.64848614 84.36433887 C208.933657 84.36513012 208.933657 84.36513012 207.18418485 84.36593735 C188.72505612 84.37463721 170.26593984 84.39040555 151.80681849 84.40878119 C132.86437794 84.42748076 113.92194391 84.43859244 94.97949451 84.44265258 C83.28994733 84.44539752 71.60043533 84.4540689 59.91089898 84.47030853 C51.89618251 84.48087611 43.88148426 84.48407672 35.86676133 84.48147835 C31.24193869 84.48019671 26.61717756 84.4821688 21.99236584 84.49288654 C17.75624417 84.50263178 13.52022529 84.50310221 9.28409886 84.49627338 C7.75366415 84.49542959 6.22322298 84.49795584 4.69280095 84.50424196 C-10.2785682 84.56214764 -21.08973944 82.57457863 -32.38789082 72.12947559 C-42.03189395 62.02379146 -44.16502583 50.70362744 -43.91523457 37.23494434 C-43.54214525 31.88032443 -42.25415728 27.90200484 -39.63789082 23.25447559 C-39.20218769 22.47588184 -38.76648457 21.69728809 -38.31757832 20.89510059 C-31.69099815 10.10427606 -22.03349426 3.66614044 -9.79475794 0.67999569 C-6.5160791 0.03315763 -3.33695585 0.00224015 0 0 Z " fill="#FDFDFD" transform="translate(299.63789081573486,374.7455244064331)"/>
<path d="M0 0 C1.09328809 -0.00480972 1.09328809 -0.00480972 2.20866281 -0.0097166 C4.64005528 -0.0179884 7.0711996 -0.01210229 9.5025959 -0.00622082 C11.26778962 -0.00924279 13.03298202 -0.0131325 14.79817212 -0.01781338 C19.64068738 -0.02809622 24.48312863 -0.02591082 29.32564998 -0.02163279 C34.55138812 -0.0191661 39.77710843 -0.02817902 45.00284004 -0.03567028 C55.23742706 -0.04842081 65.47198784 -0.05021053 75.70658146 -0.04787002 C84.02533978 -0.04608712 92.34409015 -0.0478359 100.66284752 -0.05209446 C102.43867271 -0.05298724 102.43867271 -0.05298724 104.25037316 -0.05389806 C106.65541958 -0.05510981 109.060466 -0.05632395 111.46551241 -0.05754044 C134.02098698 -0.06841731 156.57644661 -0.06625277 179.13192202 -0.06015559 C199.76582906 -0.05498613 220.3996889 -0.0662424 241.03358661 -0.08525381 C262.22162514 -0.10462612 283.40964134 -0.11288929 304.59768879 -0.10913056 C316.49270247 -0.10721762 328.38767596 -0.10971519 340.28268242 -0.1238451 C350.40883573 -0.1357521 360.53492413 -0.1371714 370.66107832 -0.12505493 C375.8268447 -0.11916154 380.9924923 -0.11807963 386.15825081 -0.13005733 C390.88944561 -0.1408999 395.62042222 -0.13783207 400.35160674 -0.12379565 C402.06082079 -0.12114426 403.77005185 -0.12352914 405.47924922 -0.13153151 C421.11124465 -0.19962498 433.67667063 2.42079611 445.50775337 13.30916309 C455.19561116 23.48754533 456.81070683 33.96824022 456.74521923 47.5975647 C456.74926322 49.05343532 456.75461718 50.50930278 456.76115593 51.96516433 C456.77531649 55.96563413 456.77085066 59.96589857 456.76332262 63.96637834 C456.758418 68.31875672 456.77085036 72.67109149 456.78105015 77.02345592 C456.79650767 84.65165479 456.80076453 92.27979655 456.79768181 99.90800953 C456.7931088 111.25161795 456.80558834 122.59516312 456.82130569 133.93875925 C456.85032972 155.37704225 456.85875854 176.81530374 456.86047686 198.25360408 C456.86185509 214.80838554 456.86802803 231.36315856 456.87757874 247.91793728 C456.88027134 252.68192459 456.88294078 257.44591192 456.88560337 262.20989925 C456.88659808 263.98637396 456.88659808 263.98637396 456.8876129 265.79873705 C456.90607744 299.11482444 456.91791439 332.43090891 456.91658306 365.74700165 C456.91653633 367.00328567 456.91648959 368.25956969 456.91644144 369.55392292 C456.91619211 375.92140089 456.91589499 382.28887886 456.91558731 388.65635683 C456.91552748 389.92097773 456.91546764 391.18559862 456.91540599 392.48854136 C456.91528468 395.04591336 456.91515929 397.60328535 456.91502982 400.16065735 C456.91319144 439.95164722 456.93571259 479.7425604 456.97674751 519.53352833 C457.02282302 564.23077986 457.04864661 608.92798101 457.04585785 653.62525779 C457.04563395 658.39081689 457.04548783 663.15637598 457.0453949 667.92193508 C457.04535993 669.09535056 457.04532497 670.26876605 457.04528895 671.47773958 C457.04519661 690.36592853 457.06435904 709.25405094 457.09019169 728.14222011 C457.11561462 747.12330922 457.11859625 766.10430091 457.09886373 785.08539762 C457.08777231 796.36261125 457.09328815 807.63952907 457.12269075 818.9167114 C457.14067613 826.45133757 457.13682024 833.98574926 457.11527925 841.52036555 C457.10362237 845.81232099 457.10134131 850.10370359 457.12565131 854.39561888 C457.14760881 858.30650903 457.14154122 862.21635339 457.11387971 866.12719822 C457.10874986 867.52707669 457.11348918 868.92703867 457.12978333 870.3268317 C457.27133283 883.36896156 453.85738958 894.79852214 444.56634712 904.35603809 C440.81718258 907.58098317 436.77829538 910.05498353 432.35931587 912.25447559 C431.31517525 912.79459278 430.27103462 913.33470997 429.19525337 913.89119434 C424.5817219 915.82258497 419.98504075 915.7479116 415.04681587 915.69197559 C414.11127876 915.68367725 413.17574165 915.67537891 412.21185493 915.66682911 C400.10681931 915.36959781 392.18683968 910.97555694 383.60540962 902.52791309 C374.02377787 892.00973087 371.90309009 879.41116829 371.99017239 865.60818768 C371.98794987 864.24071479 371.98441029 862.87324352 371.97968289 861.505777 C371.97051387 857.75547799 371.97996907 854.00542462 371.99251729 850.25514399 C372.00285037 846.17246145 371.99570171 842.08980297 371.99078482 838.00711548 C371.98457112 830.85437187 371.98948208 823.70170321 372.00169945 816.54896832 C372.01981565 805.91315243 372.02070582 795.27738373 372.01807348 784.64155523 C372.01413287 766.74982796 372.02415186 748.85813395 372.0421257 730.96641636 C372.05987654 713.25127848 372.07142349 695.53615444 372.07468414 677.82100773 C372.07489036 676.71954944 372.07509658 675.61809114 372.07530905 674.48325532 C372.07632405 668.88950922 372.0772282 663.2957631 372.07808968 657.70201696 C372.08439097 618.08114739 372.10460322 578.46029591 372.13299751 538.83943653 C372.1605504 500.34822657 372.18180145 461.85702156 372.19452095 423.36580372 C372.19511282 421.58611494 372.19511282 421.58611494 372.19571664 419.77047285 C372.1996722 407.85556614 372.20349964 395.9406594 372.20723322 384.02575262 C372.21484187 359.75369623 372.22330563 335.48164016 372.23228645 311.20958424 C372.23269832 310.09359344 372.23311019 308.97760265 372.23353454 307.82779395 C372.26113671 233.30334698 372.30867234 158.77891003 372.35931587 84.25447559 C371.55134017 84.2563742 370.74336446 84.2582728 369.91090465 84.26022893 C322.01200268 84.37214606 274.1131146 84.45792191 226.21410803 84.50980224 C220.46140366 84.51605569 214.70869954 84.52252731 208.95599556 84.5291338 C207.81074721 84.53044535 206.66549887 84.5317569 205.48554602 84.5331082 C186.94761372 84.5548582 168.40975903 84.59427754 149.87187275 84.64023957 C130.84693088 84.68701541 111.82202962 84.71477339 92.79703259 84.72491807 C81.05981415 84.73177486 69.32281509 84.75342288 57.58566418 84.79405793 C49.53446266 84.82051015 41.48337438 84.82847094 33.43213257 84.82198248 C28.78858451 84.81878348 24.14541953 84.82364917 19.50193977 84.85050297 C15.24513633 84.87494006 10.98897145 84.87599591 6.73213783 84.85897007 C5.19760124 84.85686766 3.66302383 84.86312171 2.12856683 84.87889151 C-9.64509306 84.99278987 -20.35884689 83.29571455 -29.14068413 74.75447559 C-29.91412163 74.02228809 -30.68755913 73.29010059 -31.48443413 72.53572559 C-35.11295129 68.69685961 -38.00073026 64.94233097 -40.32818413 60.19197559 C-40.95273491 58.93707325 -40.95273491 58.93707325 -41.58990288 57.65681934 C-45.47612808 48.77195504 -44.63640636 36.96767812 -41.74224663 27.87947559 C-36.89335748 16.32467592 -29.43418661 8.79416517 -18.32818413 3.29744434 C-12.17675191 0.91018795 -6.58174917 0.00441658 0 0 Z " fill="#FDFDFD" transform="translate(955.6406841278076,375.7455244064331)"/>
</svg>
