<?xml version="1.0" encoding="UTF-8"?>
<svg version="1.1" xmlns="http://www.w3.org/2000/svg" width="512" height="512">
<path d="M0 0 C1.01790619 0.00215515 2.03581238 0.0043103 3.08456421 0.00653076 C17.69363523 0.05620146 32.02575853 0.30709809 46.375 3.3125 C47.34985352 3.51117676 48.32470703 3.70985352 49.32910156 3.91455078 C97.7109774 14.03517194 141.69928269 35.9516877 177.375 70.3125 C178.3640332 71.26068604 178.3640332 71.26068604 179.37304688 72.22802734 C188.86130305 81.37247479 197.6012044 90.66984009 205.375 101.3125 C206.23306152 102.46355017 207.09113451 103.61459177 207.94921875 104.765625 C213.98736829 112.95680614 219.34595521 121.47054105 224.375 130.3125 C224.73948242 130.94430176 225.10396484 131.57610352 225.47949219 132.22705078 C247.08534998 169.97532572 256.85198095 212.74189997 256.6875 255.9375 C256.68534485 256.95540619 256.6831897 257.97331238 256.68096924 259.02206421 C256.63129854 273.63113523 256.38040191 287.96325853 253.375 302.3125 C253.07698486 303.77478027 253.07698486 303.77478027 252.77294922 305.26660156 C242.65232806 353.6484774 220.7358123 397.63678269 186.375 433.3125 C185.74287598 433.97185547 185.11075195 434.63121094 184.45947266 435.31054688 C175.31502521 444.79880305 166.01765991 453.5387044 155.375 461.3125 C154.22394983 462.17056152 153.07290823 463.02863451 151.921875 463.88671875 C143.73224019 469.92427396 135.22961724 475.30707302 126.375 480.3125 C125.66778809 480.7146875 124.96057617 481.116875 124.23193359 481.53125 C101.09654164 494.5566741 75.92537591 503.30551461 49.9375 508.625 C49.21860596 508.77235596 48.49971191 508.91971191 47.7590332 509.0715332 C33.08339502 511.86090125 18.55831162 512.66142619 3.64770508 512.62817383 C0.70811513 512.6250221 -2.2304558 512.64854926 -5.16992188 512.67382812 C-18.54306192 512.71848737 -31.43916711 511.51301542 -44.625 509.3125 C-46.33055054 509.03031616 -46.33055054 509.03031616 -48.07055664 508.74243164 C-91.33802759 500.97044532 -132.38793216 480.98345309 -165.625 452.3125 C-166.37007813 451.67828125 -167.11515625 451.0440625 -167.8828125 450.390625 C-181.38779833 438.57948485 -194.05918743 425.82889772 -204.625 411.3125 C-205.48149066 410.16255169 -206.33826433 409.01281411 -207.1953125 407.86328125 C-213.23534209 399.67315742 -218.61867614 391.16870382 -223.625 382.3125 C-224.0271875 381.60528809 -224.429375 380.89807617 -224.84375 380.16943359 C-237.8691741 357.03404164 -246.61801461 331.86287591 -251.9375 305.875 C-252.08485596 305.15610596 -252.23221191 304.43721191 -252.3840332 303.6965332 C-255.35789088 288.05024391 -255.99800362 272.57681954 -255.9375 256.6875 C-255.93534485 255.66959381 -255.9331897 254.65168762 -255.93096924 253.60293579 C-255.88129854 238.99386477 -255.63040191 224.66174147 -252.625 210.3125 C-252.42632324 209.33764648 -252.22764648 208.36279297 -252.02294922 207.35839844 C-241.90232806 158.9765226 -219.9858123 114.98821731 -185.625 79.3125 C-184.99287598 78.65314453 -184.36075195 77.99378906 -183.70947266 77.31445312 C-174.56502521 67.82619695 -165.26765991 59.0862956 -154.625 51.3125 C-153.47394983 50.45443848 -152.32290823 49.59636549 -151.171875 48.73828125 C-142.98224019 42.70072604 -134.47961724 37.31792698 -125.625 32.3125 C-124.91778809 31.9103125 -124.21057617 31.508125 -123.48193359 31.09375 C-100.34654164 18.0683259 -75.17537591 9.31948539 -49.1875 4 C-48.46860596 3.85264404 -47.74971191 3.70528809 -47.0090332 3.5534668 C-31.36274391 0.57960912 -15.88931954 -0.06050362 0 0 Z M-138.625 167.3125 C-139.56472656 168.23289063 -139.56472656 168.23289063 -140.5234375 169.171875 C-145.17554311 174.09763388 -153.625 184.25556038 -153.625 191.3125 C-152.91593506 191.71976318 -152.20687012 192.12702637 -151.47631836 192.54663086 C-125.42376096 207.51919506 -125.42376096 207.51919506 -112.625 215.3125 C-110.09029017 212.97510291 -108.36013553 210.45604416 -106.5 207.5625 C-100.95209539 199.61205092 -94.85353763 194.8837668 -85.3203125 192.74609375 C-77.27878852 191.45245728 -69.91522626 192.06229563 -62.83203125 196.4140625 C-58.50142375 199.72884848 -56.42985607 203.53208811 -54.9375 208.6875 C-53.33288953 222.16622793 -57.99218144 233.142445 -66.27734375 243.66992188 C-72.48201492 251.23242688 -79.37155615 258.22084278 -86.39453125 265.01953125 C-88.2789669 266.9567707 -90.03381867 268.93161231 -91.79296875 270.98046875 C-96.75930536 276.70074875 -102.20194075 281.93561862 -107.59765625 287.24609375 C-111.22839172 290.84186227 -114.79557357 294.43396956 -118.125 298.3125 C-122.95632386 303.94062757 -128.31497378 309.04686598 -133.59765625 314.24609375 C-137.9233978 318.53017487 -142.09873166 322.86122214 -146.03710938 327.50585938 C-147.8104661 329.52351617 -149.72556153 331.41306153 -151.625 333.3125 C-151.625 345.5225 -151.625 357.7325 -151.625 370.3125 C-101.795 370.3125 -51.965 370.3125 -0.625 370.3125 C-0.625 354.1425 -0.625 337.9725 -0.625 321.3125 C-25.045 320.9825 -49.465 320.6525 -74.625 320.3125 C-54.6875 300.5 -54.6875 300.5 -48.44946289 294.31713867 C-46.79012539 292.66365198 -45.13116548 291.00978623 -43.47265625 289.35546875 C-42.63343628 288.52648071 -41.79421631 287.69749268 -40.92956543 286.84338379 C-21.20045343 267.12000783 -3.72473015 242.81516988 -3.375 213.875 C-3.44968386 193.67301624 -10.55453937 176.98911913 -24.4140625 162.43359375 C-39.562916 148.02606712 -61.61074934 141.64639487 -82.1171875 142.06640625 C-104.26142778 143.6199554 -122.67954204 151.64101898 -138.625 167.3125 Z M8.375 147.3125 C8.375 163.1525 8.375 178.9925 8.375 195.3125 C38.075 195.3125 67.775 195.3125 98.375 195.3125 C91.5928405 212.83307871 84.80382475 230.2476855 77.57421875 247.5703125 C74.11499496 255.88982012 70.77303409 264.25529922 67.4375 272.625 C61.96543971 286.35506438 56.4631402 300.07267353 50.9375 313.78125 C50.61034941 314.5929534 50.28319881 315.40465679 49.94613457 316.24095726 C46.61222158 324.51260013 43.27706861 332.78374181 39.94008827 341.05414772 C38.67725621 344.18446877 37.41512716 347.31507296 36.15315247 350.44573975 C35.55719744 351.92364916 34.96090832 353.4014239 34.36427307 354.87905884 C33.54094827 356.91815182 32.7187146 358.95768153 31.89672852 360.99731445 C31.43202652 362.14907669 30.96732452 363.30083893 30.48854065 364.48750305 C29.73108367 366.40913355 29.02817722 368.35296833 28.375 370.3125 C46.195 370.3125 64.015 370.3125 82.375 370.3125 C85.8709375 361.5571875 85.8709375 361.5571875 89.4375 352.625 C96.13692612 335.86616541 102.85551083 319.11504939 109.60159302 302.37493896 C112.60292222 294.92613433 115.6001693 287.47587075 118.57304573 280.01565552 C120.23790992 275.83846427 121.90687 271.66291938 123.578125 267.48828125 C123.90667355 266.66743294 124.23522209 265.84658463 124.57372665 265.00086212 C128.73686927 254.62061577 133.06369532 244.33714684 137.63724327 234.13129044 C139.55551692 229.82700571 141.42035191 225.49906979 143.29556274 221.17590332 C144.27359647 218.96707829 145.2791965 216.77015588 146.31796265 214.5892334 C157.37558214 191.35971642 154.375 175.42068392 154.375 147.3125 C106.195 147.3125 58.015 147.3125 8.375 147.3125 Z " fill="#000000" transform="translate(255.625,-0.3125)"/>
</svg>
